<svg width="50" height="9" viewBox="0 0 50 9" fill="none" xmlns="http://www.w3.org/2000/svg">
<path d="M0.9375 8V0.861328H2.10938V8H0.9375ZM6.69434 2.49219C7.30306 2.49219 7.77669 2.65007 8.11523 2.96582C8.45703 3.27832 8.62793 3.78125 8.62793 4.47461V8H7.48047V4.68945C7.48047 4.26953 7.39421 3.9554 7.22168 3.74707C7.04915 3.53548 6.78223 3.42969 6.4209 3.42969C5.89681 3.42969 5.53223 3.59082 5.32715 3.91309C5.12533 4.23535 5.02441 4.70247 5.02441 5.31445V8H3.87695V2.59473H4.77051L4.93164 3.32715H4.99512C5.1123 3.13835 5.25716 2.98372 5.42969 2.86328C5.60547 2.73958 5.80078 2.64681 6.01562 2.58496C6.23372 2.52311 6.45996 2.49219 6.69434 2.49219ZM12.2461 7.16992C12.3958 7.16992 12.5439 7.1569 12.6904 7.13086C12.8369 7.10156 12.9704 7.06738 13.0908 7.02832V7.89746C12.9639 7.9528 12.7995 8 12.5977 8.03906C12.3958 8.07812 12.1859 8.09766 11.9678 8.09766C11.6618 8.09766 11.3867 8.0472 11.1426 7.94629C10.8984 7.84212 10.7048 7.66471 10.5615 7.41406C10.4183 7.16341 10.3467 6.81673 10.3467 6.37402V3.46875H9.60938V2.95605L10.4004 2.55078L10.7764 1.39355H11.499V2.59473H13.0469V3.46875H11.499V6.35938C11.499 6.63281 11.5674 6.83626 11.7041 6.96973C11.8408 7.10319 12.0215 7.16992 12.2461 7.16992ZM16.3428 2.49219C16.8245 2.49219 17.238 2.59147 17.583 2.79004C17.9281 2.98861 18.1934 3.27018 18.3789 3.63477C18.5645 3.99935 18.6572 4.43555 18.6572 4.94336V5.55859H15.0488C15.0618 6.08268 15.2018 6.48633 15.4688 6.76953C15.7389 7.05273 16.1165 7.19434 16.6016 7.19434C16.9466 7.19434 17.2559 7.16178 17.5293 7.09668C17.806 7.02832 18.0908 6.92904 18.3838 6.79883V7.73145C18.1136 7.8584 17.8385 7.95117 17.5586 8.00977C17.2786 8.06836 16.9434 8.09766 16.5527 8.09766C16.0221 8.09766 15.555 7.99512 15.1514 7.79004C14.751 7.58171 14.4368 7.27246 14.209 6.8623C13.9844 6.45215 13.8721 5.94271 13.8721 5.33398C13.8721 4.72852 13.9746 4.21419 14.1797 3.79102C14.3848 3.36784 14.6729 3.04557 15.0439 2.82422C15.415 2.60286 15.848 2.49219 16.3428 2.49219ZM16.3428 3.35645C15.9814 3.35645 15.6885 3.47363 15.4639 3.70801C15.2425 3.94238 15.1123 4.28581 15.0732 4.73828H17.5342C17.5309 4.4681 17.4854 4.22884 17.3975 4.02051C17.3128 3.81217 17.1826 3.64941 17.0068 3.53223C16.8343 3.41504 16.613 3.35645 16.3428 3.35645ZM22.6904 2.49219C22.7816 2.49219 22.8809 2.49707 22.9883 2.50684C23.0957 2.5166 23.1885 2.52962 23.2666 2.5459L23.1592 3.62012C23.0908 3.60059 23.0062 3.58594 22.9053 3.57617C22.8076 3.56641 22.7197 3.56152 22.6416 3.56152C22.4365 3.56152 22.2412 3.5957 22.0557 3.66406C21.8701 3.72917 21.7057 3.83008 21.5625 3.9668C21.4193 4.10026 21.307 4.2679 21.2256 4.46973C21.1442 4.67155 21.1035 4.90592 21.1035 5.17285V8H19.9512V2.59473H20.8496L21.0059 3.54688H21.0596C21.167 3.35482 21.3005 3.17904 21.46 3.01953C21.6195 2.86003 21.8018 2.73307 22.0068 2.63867C22.2152 2.54102 22.443 2.49219 22.6904 2.49219ZM26.4209 2.49219C26.9027 2.49219 27.3161 2.59147 27.6611 2.79004C28.0062 2.98861 28.2715 3.27018 28.457 3.63477C28.6426 3.99935 28.7354 4.43555 28.7354 4.94336V5.55859H25.127C25.14 6.08268 25.2799 6.48633 25.5469 6.76953C25.8171 7.05273 26.1947 7.19434 26.6797 7.19434C27.0247 7.19434 27.334 7.16178 27.6074 7.09668C27.8841 7.02832 28.1689 6.92904 28.4619 6.79883V7.73145C28.1917 7.8584 27.9167 7.95117 27.6367 8.00977C27.3568 8.06836 27.0215 8.09766 26.6309 8.09766C26.1003 8.09766 25.6331 7.99512 25.2295 7.79004C24.8291 7.58171 24.515 7.27246 24.2871 6.8623C24.0625 6.45215 23.9502 5.94271 23.9502 5.33398C23.9502 4.72852 24.0527 4.21419 24.2578 3.79102C24.4629 3.36784 24.751 3.04557 25.1221 2.82422C25.4932 2.60286 25.9261 2.49219 26.4209 2.49219ZM26.4209 3.35645C26.0596 3.35645 25.7666 3.47363 25.542 3.70801C25.3206 3.94238 25.1904 4.28581 25.1514 4.73828H27.6123C27.609 4.4681 27.5635 4.22884 27.4756 4.02051C27.391 3.81217 27.2607 3.64941 27.085 3.53223C26.9124 3.41504 26.6911 3.35645 26.4209 3.35645ZM33.6621 6.45703C33.6621 6.81185 33.5758 7.11133 33.4033 7.35547C33.2308 7.59961 32.9785 7.78516 32.6465 7.91211C32.3177 8.03581 31.9141 8.09766 31.4355 8.09766C31.0579 8.09766 30.7324 8.06999 30.459 8.01465C30.1888 7.96257 29.9333 7.88118 29.6924 7.77051V6.7793C29.9495 6.89974 30.2376 7.00391 30.5566 7.0918C30.8789 7.17969 31.1833 7.22363 31.4697 7.22363C31.8473 7.22363 32.1191 7.16504 32.2852 7.04785C32.4512 6.92741 32.5342 6.7679 32.5342 6.56934C32.5342 6.45215 32.5 6.34798 32.4316 6.25684C32.3665 6.16243 32.2428 6.06641 32.0605 5.96875C31.8815 5.86784 31.6178 5.7474 31.2695 5.60742C30.9277 5.4707 30.6396 5.33398 30.4053 5.19727C30.1709 5.06055 29.9935 4.89616 29.873 4.7041C29.7526 4.50879 29.6924 4.25977 29.6924 3.95703C29.6924 3.47852 29.8812 3.11556 30.2588 2.86816C30.6396 2.61751 31.1426 2.49219 31.7676 2.49219C32.0996 2.49219 32.4121 2.52637 32.7051 2.59473C33.0013 2.65983 33.291 2.75586 33.5742 2.88281L33.2129 3.74707C32.9688 3.63965 32.723 3.55176 32.4756 3.4834C32.2314 3.41178 31.9824 3.37598 31.7285 3.37598C31.4323 3.37598 31.2061 3.42155 31.0498 3.5127C30.8968 3.60384 30.8203 3.73405 30.8203 3.90332C30.8203 4.03027 30.8577 4.1377 30.9326 4.22559C31.0075 4.31348 31.1361 4.40137 31.3184 4.48926C31.5039 4.57715 31.7611 4.6862 32.0898 4.81641C32.4121 4.9401 32.6904 5.07031 32.9248 5.20703C33.1624 5.34049 33.3447 5.50488 33.4717 5.7002C33.5986 5.89551 33.6621 6.14779 33.6621 6.45703ZM36.9141 7.16992C37.0638 7.16992 37.2119 7.1569 37.3584 7.13086C37.5049 7.10156 37.6383 7.06738 37.7588 7.02832V7.89746C37.6318 7.9528 37.4674 8 37.2656 8.03906C37.0638 8.07812 36.8538 8.09766 36.6357 8.09766C36.3298 8.09766 36.0547 8.0472 35.8105 7.94629C35.5664 7.84212 35.3727 7.66471 35.2295 7.41406C35.0863 7.16341 35.0146 6.81673 35.0146 6.37402V3.46875H34.2773V2.95605L35.0684 2.55078L35.4443 1.39355H36.167V2.59473H37.7148V3.46875H36.167V6.35938C36.167 6.63281 36.2354 6.83626 36.3721 6.96973C36.5088 7.10319 36.6895 7.16992 36.9141 7.16992ZM41.0107 2.49219C41.4925 2.49219 41.9059 2.59147 42.251 2.79004C42.596 2.98861 42.8613 3.27018 43.0469 3.63477C43.2324 3.99935 43.3252 4.43555 43.3252 4.94336V5.55859H39.7168C39.7298 6.08268 39.8698 6.48633 40.1367 6.76953C40.4069 7.05273 40.7845 7.19434 41.2695 7.19434C41.6146 7.19434 41.9238 7.16178 42.1973 7.09668C42.474 7.02832 42.7588 6.92904 43.0518 6.79883V7.73145C42.7816 7.8584 42.5065 7.95117 42.2266 8.00977C41.9466 8.06836 41.6113 8.09766 41.2207 8.09766C40.6901 8.09766 40.223 7.99512 39.8193 7.79004C39.4189 7.58171 39.1048 7.27246 38.877 6.8623C38.6523 6.45215 38.54 5.94271 38.54 5.33398C38.54 4.72852 38.6426 4.21419 38.8477 3.79102C39.0527 3.36784 39.3408 3.04557 39.7119 2.82422C40.083 2.60286 40.516 2.49219 41.0107 2.49219ZM41.0107 3.35645C40.6494 3.35645 40.3564 3.47363 40.1318 3.70801C39.9105 3.94238 39.7803 4.28581 39.7412 4.73828H42.2021C42.1989 4.4681 42.1533 4.22884 42.0654 4.02051C41.9808 3.81217 41.8506 3.64941 41.6748 3.53223C41.5023 3.41504 41.2809 3.35645 41.0107 3.35645ZM46.4355 8.09766C45.791 8.09766 45.2734 7.86328 44.8828 7.39453C44.4954 6.92253 44.3018 6.22754 44.3018 5.30957C44.3018 4.38184 44.4987 3.68034 44.8926 3.20508C45.2897 2.72982 45.8122 2.49219 46.46 2.49219C46.7334 2.49219 46.9727 2.52962 47.1777 2.60449C47.3828 2.67611 47.5586 2.77376 47.7051 2.89746C47.8548 3.02116 47.9818 3.15951 48.0859 3.3125H48.1396C48.1234 3.21159 48.1038 3.06673 48.0811 2.87793C48.0615 2.68587 48.0518 2.50846 48.0518 2.3457V0.402344H49.2041V8H48.3057L48.1006 7.2627H48.0518C47.9541 7.41895 47.8304 7.56055 47.6807 7.6875C47.5342 7.8112 47.3584 7.91048 47.1533 7.98535C46.9515 8.06022 46.7122 8.09766 46.4355 8.09766ZM46.7578 7.16504C47.2493 7.16504 47.596 7.02344 47.7979 6.74023C47.9997 6.45703 48.1038 6.03223 48.1104 5.46582V5.31445C48.1104 4.70898 48.0127 4.24512 47.8174 3.92285C47.6221 3.59733 47.2656 3.43457 46.748 3.43457C46.3346 3.43457 46.0189 3.60221 45.8008 3.9375C45.5859 4.26953 45.4785 4.7334 45.4785 5.3291C45.4785 5.9248 45.5859 6.38053 45.8008 6.69629C46.0189 7.00879 46.3379 7.16504 46.7578 7.16504Z" fill="#57E0A6"/>
</svg>
